<?xml version="1.0" encoding="iso-8859-1"?>
<!-- Generator: Adobe Illustrator 19.0.0, SVG Export Plug-In . SVG Version: 6.00 Build 0)  -->
<svg version="1.1" fill="#F9A828" id="Capa_1" xmlns="http://www.w3.org/2000/svg" xmlns:xlink="http://www.w3.org/1999/xlink" x="0px" y="0px"
	 viewBox="0 0 511.999 511.999" style="enable-background:new 0 0 511.999 511.999;" xml:space="preserve">
<g>
	<g>
		<path d="M228.535,176.783h-97.041c-4.142,0-7.5,3.358-7.5,7.5s3.358,7.5,7.5,7.5h97.041c4.142,0,7.5-3.357,7.5-7.5
			C236.035,180.141,232.677,176.783,228.535,176.783z"/>
	</g>
</g>
<g>
	<g>
		<path d="M228.535,208.809h-97.041c-4.142,0-7.5,3.357-7.5,7.5c0,4.143,3.358,7.5,7.5,7.5h97.041c4.142,0,7.5-3.357,7.5-7.5
			C236.035,212.166,232.677,208.809,228.535,208.809z"/>
	</g>
</g>
<g>
	<g>
		<path d="M303.58,240.836H131.494c-4.142,0-7.5,3.357-7.5,7.5c0,4.143,3.358,7.5,7.5,7.5h172.087c4.142,0,7.5-3.357,7.5-7.5
			C311.081,244.193,307.722,240.836,303.58,240.836z"/>
	</g>
</g>
<g>
	<g>
		<path d="M319.422,144.188l-24.041-25.511l24.041-25.511c2.84-3.016,2.699-7.763-0.315-10.604c-3.015-2.84-7.761-2.7-10.603,0.315
			l-28.888,30.656c-2.722,2.889-2.722,7.398,0,10.288l28.888,30.656c2.841,3.014,7.586,3.156,10.603,0.315
			C322.122,151.949,322.262,147.203,319.422,144.188z"/>
	</g>
</g>
<g>
	<g>
		<path d="M417.251,113.531l-28.888-30.656c-2.84-3.014-7.587-3.155-10.603-0.315c-3.015,2.841-3.156,7.587-0.315,10.603
			l24.041,25.511l-24.041,25.511c-2.84,3.016-2.699,7.762,0.315,10.604c3.014,2.84,7.761,2.7,10.603-0.315l28.888-30.656
			C419.973,120.929,419.973,116.42,417.251,113.531z"/>
	</g>
</g>
<g>
	<g>
		<path d="M360.849,80.894c-3.934-1.295-8.173,0.848-9.466,4.784l-20.147,61.311c-1.293,3.935,0.849,8.173,4.784,9.466
			c3.927,1.293,8.172-0.843,9.466-4.784l20.147-61.311C366.926,86.426,364.784,82.187,360.849,80.894z"/>
	</g>
</g>
<g>
	<g>
		<path d="M455.119,127.092c-4.082-0.728-7.974,1.987-8.702,6.064c-8.55,47.859-50.105,82.595-98.807,82.595
			c-60.305,0-107.487-53.175-99.497-113.649c6.516-49.096,48.65-87.102,99.497-87.102c49.395,0,92.078,36.787,99.286,85.569
			c0.605,4.097,4.418,6.924,8.516,6.323c4.098-0.605,6.929-4.418,6.323-8.516C453.436,42.21,405.011,0,347.609,0
			C291.5,0,244.626,40.262,234.339,93.411H90.277c-22.108,0-40.095,17.987-40.095,40.095v306.965c0,0,0,0,0,0.001
			c0,16.732,13.613,30.345,30.345,30.345h17.488v29.808c0,9.914,11.86,15.065,19.107,8.315l14.372-13.383l14.372,13.384
			c7.248,6.75,19.106,1.593,19.106-8.316v-29.808h57.26c4.142,0,7.5-3.357,7.5-7.5c0-4.143-3.358-7.5-7.5-7.5h-57.26v-11.481
			c0-6.266-5.097-11.364-11.364-11.364h-44.23c-6.269,0-11.363,5.101-11.363,11.364v11.481H80.527
			c-8.46,0-15.344-6.883-15.344-15.345c0-8.46,6.883-15.344,15.345-15.344h259.581v30.689h-82.875c-4.142,0-7.5,3.357-7.5,7.5
			c0,4.143,3.358,7.5,7.5,7.5h83.342c8.013,0,14.533-6.52,14.533-14.533v-38.656V230.51c52.698-3.383,96.685-42.167,106.074-94.715
			C461.911,131.717,459.197,127.82,455.119,127.092z M113.016,447.973h36.955c0,22.561,0,21.845,0,44.294l-10.735-9.995
			c-4.342-4.042-11.146-4.042-15.487,0.001l-10.734,9.995C113.016,469.833,113.016,470.526,113.016,447.973z M340.109,410.128
			H80.528v0c-5.364,0-10.737,1.46-15.345,4.173V133.507c0-13.837,11.258-25.094,25.094-25.094h142.166
			c-3.82,63.279,44.32,118.007,107.666,122.099V410.128z"/>
	</g>
</g>
<g>
</g>
<g>
</g>
<g>
</g>
<g>
</g>
<g>
</g>
<g>
</g>
<g>
</g>
<g>
</g>
<g>
</g>
<g>
</g>
<g>
</g>
<g>
</g>
<g>
</g>
<g>
</g>
<g>
</g>
</svg>
