<svg id="Layer_2" fill="#2E383F" height="512" viewBox="0 0 64 64" width="512" xmlns="http://www.w3.org/2000/svg" data-name="Layer 2"><path d="m57.979 11.593a2 2 0 0 0 -1.632-1.581 147.809 147.809 0 0 0 -48.694 0 2 2 0 0 0 -1.632 1.581 103.538 103.538 0 0 0 0 40.814 2 2 0 0 0 1.632 1.581 148.049 148.049 0 0 0 24.347 2.019 148.049 148.049 0 0 0 24.347-2.019 2 2 0 0 0 1.632-1.581 103.5 103.5 0 0 0 0-40.814zm-6.5 1.754-19.479 18.669-19.481-18.669a143.686 143.686 0 0 1 38.962 0zm2.838 36.917a143.768 143.768 0 0 1 -44.638 0 99.419 99.419 0 0 1 -.342-34.425l21.277 20.39a2 2 0 0 0 2.768 0l21.277-20.39a99.419 99.419 0 0 1 -.34 34.425z"/></svg>