<?xml version="1.0" encoding="iso-8859-1"?>
<!-- Generator: Adobe Illustrator 19.0.0, SVG Export Plug-In . SVG Version: 6.00 Build 0)  -->
<svg version="1.1" fill="#F9A828" id="Capa_1" xmlns="http://www.w3.org/2000/svg" xmlns:xlink="http://www.w3.org/1999/xlink" x="0px" y="0px"
	 viewBox="0 0 512.075 512.075" style="enable-background:new 0 0 512.075 512.075;" xml:space="preserve">
<g>
	<g>
		<path d="M512.038,298.723V96.056c0-5.891-4.776-10.667-10.667-10.667H64.038c-5.891,0-10.667,4.776-10.667,10.667
			s4.776,10.667,10.667,10.667h426.667v192c0.89,16.784-11.995,31.11-28.779,32c-1.073,0.057-2.148,0.057-3.221,0H181.371
			c-5.891,0-10.667,4.776-10.667,10.667c0,5.891,4.776,10.667,10.667,10.667h277.333c28.38,1.075,52.258-21.061,53.333-49.441
			C512.087,301.318,512.087,300.02,512.038,298.723z"/>
	</g>
</g>
<g>
	<g>
		<path d="M462.597,0.056c-1.297-0.049-2.595-0.049-3.892,0H53.371C23.93,0.091,0.073,23.949,0.038,53.389v245.333
			c-1.075,28.38,21.061,52.259,49.441,53.333c1.297,0.049,2.595,0.049,3.892,0v0h64c2.829-0.001,5.541-1.125,7.541-3.125
			l141.792-141.792l88.459,88.459c4.237,4.093,10.99,3.975,15.083-0.262c3.993-4.134,3.993-10.687,0-14.821l-35.125-35.125
			l38.251-38.251l77.792,77.792c4.237,4.093,10.99,3.975,15.083-0.262c3.993-4.134,3.993-10.687,0-14.821l-85.333-85.333
			c-4.165-4.164-10.917-4.164-15.083,0l-45.792,45.792l-45.792-45.792c-4.165-4.164-10.917-4.164-15.083,0L112.955,330.723H53.371
			c-16.777,0.896-31.104-11.979-32-28.756c-0.058-1.081-0.058-2.163,0-3.244V53.389c0-17.673,14.327-32,32-32h405.333
			c16.784-0.89,31.11,11.995,32,28.779c0.057,1.073,0.057,2.148,0,3.221c0,5.891,4.776,10.667,10.667,10.667
			c5.891,0,10.667-4.776,10.667-10.667C513.112,25.009,490.977,1.131,462.597,0.056z"/>
	</g>
</g>
<g>
	<g>
		<path d="M85.371,42.723H64.038c-5.891,0-10.667,4.776-10.667,10.667c0,5.891,4.776,10.667,10.667,10.667h21.333
			c5.891,0,10.667-4.776,10.667-10.667C96.038,47.498,91.262,42.723,85.371,42.723z"/>
	</g>
</g>
<g>
	<g>
		<path d="M149.371,42.723h-21.333c-5.891,0-10.667,4.776-10.667,10.667c0,5.891,4.776,10.667,10.667,10.667h21.333
			c5.891,0,10.667-4.776,10.667-10.667C160.038,47.498,155.262,42.723,149.371,42.723z"/>
	</g>
</g>
<g>
	<g>
		<path d="M458.704,42.723h-21.333c-5.891,0-10.667,4.776-10.667,10.667c0,5.891,4.776,10.667,10.667,10.667h21.333
			c5.891,0,10.667-4.776,10.667-10.667C469.371,47.498,464.595,42.723,458.704,42.723z"/>
	</g>
</g>
<g>
	<g>
		<path d="M117.371,138.723c-29.455,0-53.333,23.878-53.333,53.333s23.878,53.333,53.333,53.333
			c29.441-0.035,53.298-23.893,53.333-53.333C170.704,162.601,146.826,138.723,117.371,138.723z M117.371,224.056
			c-17.673,0-32-14.327-32-32s14.327-32,32-32c17.673,0,32,14.327,32,32S135.044,224.056,117.371,224.056z"/>
	</g>
</g>
<g>
	<g>
		<path d="M480.038,384.056h-448c-17.673,0-32,14.327-32,32v64c0,17.673,14.327,32,32,32h224c5.891,0,10.667-4.776,10.667-10.667
			v-53.333c0-5.891-4.776-10.667-10.667-10.667s-10.667,4.776-10.667,10.667v42.667h-53.333v-21.333
			c0-5.891-4.776-10.667-10.667-10.667c-5.891,0-10.667,4.776-10.667,10.667v21.333h-42.667v-42.667
			c0-5.891-4.776-10.667-10.667-10.667c-5.891,0-10.667,4.776-10.667,10.667v42.667h-32v-21.333c0-5.891-4.776-10.667-10.667-10.667
			s-10.667,4.776-10.667,10.667v21.333H32.038c-5.891,0-10.667-4.776-10.667-10.667v-64c0-5.891,4.776-10.667,10.667-10.667h448
			c5.891,0,10.667,4.776,10.667,10.667v64c0,5.891-4.776,10.667-10.667,10.667h-21.333v-21.333c0-5.891-4.776-10.667-10.667-10.667
			c-5.891,0-10.667,4.776-10.667,10.667v21.333h-32v-42.667c0-5.891-4.776-10.667-10.667-10.667s-10.667,4.776-10.667,10.667v42.667
			h-42.667v-21.333c0-5.891-4.776-10.667-10.667-10.667c-5.891,0-10.667,4.776-10.667,10.667v21.333h-21.333
			c-5.891,0-10.667,4.776-10.667,10.667c0,5.891,4.776,10.667,10.667,10.667h181.333c17.673,0,32-14.327,32-32v-64
			C512.038,398.383,497.711,384.056,480.038,384.056z"/>
	</g>
</g>
<g>
</g>
<g>
</g>
<g>
</g>
<g>
</g>
<g>
</g>
<g>
</g>
<g>
</g>
<g>
</g>
<g>
</g>
<g>
</g>
<g>
</g>
<g>
</g>
<g>
</g>
<g>
</g>
<g>
</g>
</svg>
